# xmcd
#
# Track frame offsets: 
#        150
#        16763
#        34538
#        53101
#        73951
#        102376
#        119139
#        135068
#        155918
#        172386
#        186636
#        215015
#
# Disc length: 3067 seconds
#
# Revision: 0
# Processed by: cddbd v1.5.2PL0 Copyright (c) Steve Scherf et al.
# Submitted via: ExactAudioCopy v1.0b4
#
DISCID=b90bf90c
DTITLE=Mai Le Huyen - AsiaCD358
DYEAR=2014
DGENRE=
TTITLE0=100% and Tinh Linh
TTITLE1=Tinh Ca Nguoi Di Bien
TTITLE2=Con Tim Va Nuoc Mat
TTITLE3=Nguoi Yeu Ly Tuong and Dem Huyen Dieu
TTITLE4=Lien Khuc Co Nho Dem Nao
TTITLE5=Hai Trai Tim Vang
TTITLE6=Sau Dong
TTITLE7=Nang Chieu
TTITLE8=Lam Quen
TTITLE9=Ai
TTITLE10=Xay Nha Ben Suoi and Tup Leu Ly Tuong
TTITLE11=60 Nam Cuoc Doi
EXTD=
EXTT0=
EXTT1=
EXTT2=
EXTT3=
EXTT4=
EXTT5=
EXTT6=
EXTT7=
EXTT8=
EXTT9=
EXTT10=
EXTT11=
PLAYORDER=
